<svg viewBox="0 0 1440 425" fill="#9CA3AF" xmlns="http://www.w3.org/2000/svg">
    <g clip-path="url(#a)">
        <mask id="c" style="mask-type:alpha" maskUnits="userSpaceOnUse" x="-219" y="-3" width="1866" height="428">
            <path fill-rule="evenodd" clip-rule="evenodd" d="M1281.16 424.195l88.66-104.087h-37.14l-83.64 104.087h-1.28l83.44-104.087h-37.13l-78.42 104.087h-1.29l78.22-104.087h-37.14l-73.19 104.087h-1.29l72.99-104.087h-37.13l-67.98 104.087h-1.28l67.78-104.087h-37.14l-62.75 104.087h-1.29l62.55-104.087h-37.13l-57.53 104.087h-1.29l57.33-104.087h-37.14l-52.31 104.087h-1.28l52.11-104.087h-37.13l-47.1 104.087h-1.28l46.89-104.087h-37.14l-41.87 104.087h-1.283l41.673-104.087h-37.135l-36.652 104.087h-1.283l36.45-104.087h-37.14l-31.425 104.087h-1.29l31.23-104.087h-37.132L881.64 424.195h-1.282l26.009-104.087h-37.139l-20.986 104.087h-1.282l20.782-104.087H830.61l-15.765 104.087h-1.29l15.57-104.087h-37.14L781.44 424.195h-1.283L790.5 320.108h-37.133l-5.325 104.087h-1.284l5.125-104.087h-37.14l-.101 104.087h-1.285l-.099-104.087h-37.137l5.121 104.087h-1.284l-5.322-104.087H637.5l10.342 104.087h-1.285l-10.542-104.087h-37.136l15.562 104.087h-1.285l-15.763-104.087h-37.135l20.783 104.087h-1.284l-20.984-104.087h-37.137l26.005 104.087h-1.285l-26.205-104.087h-37.139l31.228 104.087h-1.283l-31.424-104.087h-37.139l36.45 104.087h-1.29l-36.646-104.087H405.77l41.669 104.087h-1.283l-41.865-104.087h-37.139l46.889 104.087h-1.284l-47.092-104.087h-37.138l52.116 104.087h-1.291L327.04 320.108h-37.131l57.328 104.087h-1.283l-57.531-104.087h-37.139l62.556 104.087h-1.283l-62.759-104.087h-37.132l67.775 104.087h-1.283L211.18 320.108h-37.139l73.002 104.087h-1.29l-73.198-104.087h-37.131l78.214 104.087h-1.283l-78.417-104.087h-37.14l83.442 104.087h-1.283L95.313 320.108H58.181l88.661 104.087h-1.29L56.695 320.108l-2.276-2.669-66.078-77.399-2.277-2.669-66.079-77.399-2.276-2.669-66.078-77.399-2.277-2.669L-219-2.833h2.11l68.202 80.068h48.846L-164.18-2.833h2.11l64.186 80.068h48.846L-109.36-2.833h2.109l60.17 80.068H1.767L-54.54-2.832h2.11L3.724 77.234H52.57L.28-2.832h2.11l52.138 80.067h48.846L55.101-2.832h2.109l48.122 80.067h48.846L109.921-2.832h2.109l44.106 80.067h48.846L164.74-2.832h2.11l40.089 80.067h48.847L219.561-2.832h2.109l36.073 80.067h48.847L274.381-2.832h2.109l32.058 80.067h48.846L329.2-2.832h2.11l28.041 80.067h48.847L384.021-2.832h2.11l24.025 80.067h48.846L438.841-2.832h2.11l20.008 80.067h48.847L493.661-2.832h2.11l15.991 80.067h48.849L548.485-2.832h2.108l11.972 80.067h48.851l-8.111-80.067h2.109l7.955 80.067h48.85l-4.094-80.067h2.109l3.939 80.067h48.85l-.077-80.067h2.108l-.077 80.067h48.853l3.937-80.067h2.108l-4.095 80.067h48.855l7.95-80.067h2.108l-8.108 80.067h48.847L877.41-2.832h2.107L867.39 77.235h48.848l15.99-80.067h2.107l-16.14 80.067h48.847l20.003-80.067h2.107L969 77.235h48.85l24.02-80.067h2.11l-24.18 80.067h48.85l28.04-80.067h2.11l-28.2 80.067h48.86l32.05-80.067h2.11l-32.21 80.067h48.85l36.07-80.067h2.11l-36.23 80.067h48.86l40.08-80.067h2.11l-40.24 80.067h48.84l44.11-80.067h2.11l-44.26 80.067h48.85l48.12-80.067h2.11l-48.27 80.067h48.85l52.13-80.067h2.11l-52.29 80.067h48.85l56.15-80.067h2.11l-56.3 80.067h48.84l60.17-80.067h2.11l-60.33 80.067h48.86l64.18-80.067h2.11l-64.34 80.067h48.86l68.19-80.067h2.11l-68.35 80.067-2.29 2.67-66.07 77.398-2.27 2.669-66.08 77.399-2.28 2.669-66.07 77.399-2.28 2.669-88.86 104.087h-1.29zM-80.493 157.303h44.99l-62.193-77.399h-48.723l65.926 77.399zm1497.213 0h44.98l62.05-77.399h-48.73l-58.3 77.399zm-46.79 0h44.99l58.16-77.399h-48.72l-54.43 77.399zm-46.79 0h44.99l54.28-77.399h-48.72l-50.55 77.399zm-46.79 0h44.99l50.39-77.399h-48.71l-46.67 77.399zm-46.78 0h44.99l46.5-77.399h-48.72l-42.77 77.399zm-46.79 0h44.99l42.63-77.399h-48.72l-38.9 77.399zm-46.79 0h44.99l38.75-77.399h-48.72l-35.02 77.399zm-46.79 0h44.99l34.86-77.399h-48.72l-31.13 77.399zm-46.78 0h44.98l30.99-77.399h-48.72l-27.25 77.399zm-46.795 0h44.995l27.09-77.399h-48.72l-23.365 77.399zm-46.785 0h44.985l23.225-77.399h-48.725l-19.485 77.399zm-46.785 0h44.985l19.335-77.399h-48.72l-15.6 77.399zm-46.793 0h44.985l15.458-77.399h-48.72l-11.723 77.399zm-46.784 0h44.984l11.573-77.399h-48.72l-7.837 77.399zm-46.793 0h44.992l7.688-77.399h-48.72l-3.96 77.399zm-46.786 0h44.986l3.81-77.399h-48.721l-.075 77.399zm748.601 0h44.99l65.93-77.399h-48.72l-62.2 77.399zm-795.387 0h44.988l-.075-77.399h-48.722l3.809 77.399zm-46.789 0h44.989l-3.957-77.399h-48.722l7.69 77.399zm-46.787 0h44.988l-7.839-77.399h-48.722l11.573 77.399zm-46.787 0h44.987l-11.722-77.399h-48.721l15.456 77.399zm-46.79 0h44.989l-15.607-77.399h-48.716l19.334 77.399zm-46.787 0h44.989l-19.486-77.399h-48.723l23.22 77.399zm-46.788 0h44.989l-23.371-77.399h-48.717l27.099 77.399zm-46.788 0h44.99l-27.251-77.399h-48.723l30.984 77.399zm-46.788 0h44.99l-31.136-77.399H258.94l34.869 77.399zm-46.788 0h44.99l-35.015-77.399h-48.723l38.748 77.399zm-46.787 0h44.99l-38.901-77.399H157.6l42.634 77.399zm-46.788 0h44.99l-42.779-77.399h-48.723l46.512 77.399zm-46.788 0h44.99l-46.665-77.399H56.26l50.398 77.399zm-46.788 0h44.991l-50.55-77.399H5.593l54.276 77.399zm-46.787 0h44.99L3.643 79.904h-48.723l58.162 77.399zm-46.788 0h44.99l-58.314-77.399h-48.717l62.041 77.399zm64.186 80.068h41.127l-58.315-77.399h-44.86l62.048 77.399zm1325.919 0h41.12l62.05-77.399h-44.87l-58.3 77.399zm-42.78 0h41.13l58.16-77.399h-44.86l-54.43 77.399zm-42.77 0h41.13l54.28-77.399h-44.87l-50.54 77.399zm-42.77 0h41.13l50.39-77.399h-44.86l-46.66 77.399zm-42.77 0h41.13l46.51-77.399h-44.86l-42.78 77.399zm-42.77 0h41.13l42.63-77.399h-44.86l-38.9 77.399zm-42.78 0h41.13l38.76-77.399h-44.87l-35.02 77.399zm-42.76 0h41.12l34.87-77.399h-44.86L1057 237.371zm-42.77 0h41.12l30.99-77.399h-44.87l-27.24 77.399zm-42.777 0h41.127l27.1-77.399h-44.857l-23.37 77.399zm-42.773 0h41.13l23.22-77.399h-44.865l-19.485 77.399zm-42.773 0h41.131l19.334-77.399h-44.857l-15.608 77.399zm-42.772 0h41.13l15.45-77.399h-44.857l-11.723 77.399zm-42.772 0h41.129l11.573-77.399h-44.857l-7.845 77.399zm-42.765 0h41.122l7.687-77.399H761.55l-3.952 77.399zm-42.775 0h41.124l3.811-77.399h-44.86l-.075 77.399zm-42.772 0h41.127l-.075-77.399h-44.859l3.807 77.399zm-684.341 0h41.126l-62.193-77.399h-44.859l65.926 77.399zm641.57 0h41.126l-3.958-77.399h-44.859l7.691 77.399zm-42.772 0h41.126l-7.838-77.399h-44.86l11.572 77.399zm-42.771 0h41.127l-11.722-77.399h-44.86l15.455 77.399zm-42.768 0h41.123l-15.604-77.399h-44.861l19.342 77.399zm-42.772 0h41.126l-19.487-77.399h-44.859l23.22 77.399zm-42.771 0h41.125l-23.372-77.399H388.32l27.106 77.399zm-42.772 0h41.125l-27.257-77.399H341.67l30.984 77.399zm-42.772 0h41.126l-31.136-77.399h-44.86l34.87 77.399zm-42.772 0h41.127l-35.015-77.399h-44.867l38.755 77.399zm-42.771 0h41.126l-38.9-77.399h-44.86l42.634 77.399zm-42.771 0h41.125l-42.786-77.399h-44.859l46.52 77.399zm-42.772 0h41.126l-46.665-77.399h-44.859l50.398 77.399zm-42.772 0h41.127L106.6 159.972H61.74l54.284 77.399zm-42.77 0h41.125L59.95 159.972H15.09l58.163 77.399zm1325.916 0h41.12l65.93-77.399h-44.86l-62.19 77.399zm-64.34 80.068h37.26l65.93-77.399h-41l-62.19 77.399zm-1278.925 0h37.269L30.982 240.04h-41.003l65.926 77.399zm38.755 0h37.27L73.616 240.04H32.62l62.04 77.399zm38.756 0h37.269l-54.428-77.399H75.253l58.163 77.399zm38.755 0h37.27l-50.55-77.399h-40.996l54.276 77.399zm38.755 0h37.262l-46.657-77.399h-41.002l50.397 77.399zm38.756 0h37.269l-42.786-77.399H203.17l46.512 77.399zm38.755 0h37.262l-38.893-77.399h-41.002l42.633 77.399zm38.756 0h37.262l-35.014-77.399h-40.996l38.748 77.399zm38.755 0h37.263l-31.13-77.399h-41.003l34.87 77.399zm38.756 0h37.261l-27.25-77.399H373.72l30.984 77.399zm38.755 0h37.262l-23.365-77.399h-41.002l27.105 77.399zm38.756 0h37.264L499.99 240.04h-40.995l23.22 77.399zm38.754 0h37.266L542.63 240.04h-40.995l19.334 77.399zm38.756 0h37.265l-11.723-77.399H544.27l15.455 77.399zm38.755 0h37.265l-7.84-77.399h-40.998l11.573 77.399zm38.755 0h37.264l-3.956-77.399h-40.998l7.69 77.399zm38.756 0h37.264l-.074-77.399h-40.998l3.808 77.399zm38.754 0h37.265l3.81-77.399h-41l-.075 77.399zm38.757 0h37.26l7.696-77.399h-41.003l-3.953 77.399zm38.753 0h37.267l11.573-77.399h-41.002l-7.838 77.399zm38.76 0h37.26l15.458-77.399H842.73l-11.715 77.399zm38.752 0h37.26l19.343-77.399h-41.003l-15.6 77.399zm38.753 0h37.268l23.22-77.399h-41.003l-19.485 77.399zm38.76 0h37.26l27.11-77.399h-41.008l-23.362 77.399zm38.752 0h37.268l30.98-77.399h-40.99l-27.258 77.399zm38.758 0h37.26l34.87-77.399h-40.99l-31.14 77.399zm38.76 0h37.25l38.76-77.399h-41.01l-35 77.399zm38.75 0h37.27l42.63-77.399h-41l-38.9 77.399zm38.75 0h37.27l46.51-77.399h-40.99l-42.79 77.399zm38.76 0h37.26l50.4-77.399h-40.99l-46.67 77.399zm38.75 0h37.27l54.28-77.399h-41l-50.55 77.399zm38.76 0h37.26l58.17-77.399h-41l-54.43 77.399zm38.75 0h37.26l62.05-77.399h-40.99l-58.32 77.399z" fill="url(#b)"/>
        </mask>
        <path d="M1440 0H0v424.131h1440V0z" fill="fill" mask="url(#c)"/>
    </g>
    <defs>
        <linearGradient id="b" x1="714" y1="424.195" x2="714" y2="-2.832" gradientUnits="userSpaceOnUse">
            <stop stop-color="#9FE870" stop-opacity=".01"/>
            <stop offset="1" stop-color="#9FE870" stop-opacity=".35"/>
        </linearGradient>
        <clipPath id="a">
            <path fill="#fff" d="M0 0h1440v425H0z"/>
        </clipPath>
    </defs>
</svg>